<svg xmlns="http://www.w3.org/2000/svg" xmlns:xlink="http://www.w3.org/1999/xlink" preserveAspectRatio="xMidYMid meet" version="1.0" viewBox="-0.0 -0.0 89.4 89.4" zoomAndPan="magnify" style="fill: rgb(0, 0, 0);" role="img" aria-label="Abstract watercolor brushstroke element"><g id="__id1511_stwexnm7dt"><path d="M88.022,30.68a1.932,1.932,0,0,1,.429.051,1.363,1.363,0,0,1,.745.286.306.306,0,0,1,.066.1.565.565,0,0,1,.074.215,1,1,0,0,1-.524.986,5.527,5.527,0,0,1-1.123.615,7.593,7.593,0,0,1-4.323.2A7.5,7.5,0,0,1,88.022,30.68ZM77.551,22.46a7.931,7.931,0,0,1,4.277-2.939,1.8,1.8,0,0,1,1.783.16,1.354,1.354,0,0,1-.456,1.291,8.429,8.429,0,0,1-5.726,1.95.175.175,0,0,1-.047-.084C77.342,22.7,77.468,22.569,77.551,22.46ZM74.09,10.82a3.782,3.782,0,0,1,1.071-.389,1.06,1.06,0,0,1,.566.023.783.783,0,0,1,.169.084,1.335,1.335,0,0,1,.391.388.889.889,0,0,1-.111,1.08,5.621,5.621,0,0,1-2.253,1.922,9.862,9.862,0,0,1-2.945.776A7.036,7.036,0,0,1,74.09,10.82ZM65.534,3.861c.021.247.107.494.021.645a5.048,5.048,0,0,1-2.088,2.375A3.347,3.347,0,0,1,65.534,3.861ZM22.922,11.917a.165.165,0,0,1-.084.046c-.14.04-.269-.085-.378-.169a7.931,7.931,0,0,1-2.939-4.277,1.8,1.8,0,0,1,.16-1.783,1.352,1.352,0,0,1,1.291.457A8.425,8.425,0,0,1,22.922,11.917Zm-12.1,3.338a3.782,3.782,0,0,1-.389-1.071,1.055,1.055,0,0,1,.023-.565.761.761,0,0,1,.084-.169,1.312,1.312,0,0,1,.388-.391.888.888,0,0,1,1.08.111,5.615,5.615,0,0,1,1.922,2.253,9.854,9.854,0,0,1,.776,2.945A7.038,7.038,0,0,1,10.82,15.255ZM3.861,23.811c.247-.02.494-.107.645-.021a5.053,5.053,0,0,1,2.375,2.088A3.347,3.347,0,0,1,3.861,23.811ZM.936,35.44a.669.669,0,0,1-.222-.4.175.175,0,0,1,0-.056l0-.006a.128.128,0,0,1,.017-.046l.028-.044a.559.559,0,0,1,.354-.2,4.781,4.781,0,0,1,2.328.561c.14.085.225.25.42.473A3.553,3.553,0,0,1,.936,35.44Zm.387,23.226a2,2,0,0,1-.429-.052,1.352,1.352,0,0,1-.744-.286.306.306,0,0,1-.066-.1.528.528,0,0,1-.074-.215.994.994,0,0,1,.524-.986,5.527,5.527,0,0,1,1.123-.615,7.59,7.59,0,0,1,4.322-.2A7.5,7.5,0,0,1,1.323,58.666Zm10.471,8.219a7.926,7.926,0,0,1-4.277,2.939,1.8,1.8,0,0,1-1.783-.16,1.35,1.35,0,0,1,.457-1.29,8.426,8.426,0,0,1,5.726-1.951.165.165,0,0,1,.046.084C12,66.647,11.878,66.777,11.794,66.885Zm3.461,11.64a3.754,3.754,0,0,1-1.071.39,1.076,1.076,0,0,1-.565-.023.811.811,0,0,1-.169-.085,1.288,1.288,0,0,1-.391-.388.886.886,0,0,1,.111-1.079,5.615,5.615,0,0,1,2.253-1.922,9.824,9.824,0,0,1,2.945-.777A7.034,7.034,0,0,1,15.255,78.525Zm8.556,6.959c-.02-.246-.107-.493-.021-.645a5.058,5.058,0,0,1,2.088-2.375A3.346,3.346,0,0,1,23.811,85.484Zm42.612-8.055a.175.175,0,0,1,.084-.047c.14-.04.27.086.378.169a7.926,7.926,0,0,1,2.939,4.277,1.8,1.8,0,0,1-.16,1.783,1.352,1.352,0,0,1-1.29-.456A8.429,8.429,0,0,1,66.423,77.429Zm12.1-3.339a3.754,3.754,0,0,1,.39,1.071,1.08,1.08,0,0,1-.023.566.836.836,0,0,1-.085.169,1.311,1.311,0,0,1-.388.391.887.887,0,0,1-1.079-.111,5.621,5.621,0,0,1-1.922-2.253,9.832,9.832,0,0,1-.777-2.945A7.033,7.033,0,0,1,78.525,74.09Zm6.959-8.556c-.246.021-.493.107-.645.021a5.052,5.052,0,0,1-2.375-2.088A3.346,3.346,0,0,1,85.484,65.534ZM88.41,53.906a.668.668,0,0,1,.222.4.209.209,0,0,1,0,.056v.006a.166.166,0,0,1-.017.047l-.029.043a.565.565,0,0,1-.354.2A4.8,4.8,0,0,1,85.9,54.1c-.141-.085-.226-.251-.421-.473A3.548,3.548,0,0,1,88.41,53.906ZM53.906.936a.663.663,0,0,1,.4-.222.175.175,0,0,1,.056,0l.006,0a.14.14,0,0,1,.047.017l.043.028a.565.565,0,0,1,.2.354A4.8,4.8,0,0,1,54.1,3.443c-.085.14-.251.225-.473.42A3.546,3.546,0,0,1,53.906.936ZM30.68,1.323a1.939,1.939,0,0,1,.051-.429A1.36,1.36,0,0,1,31.017.15a.306.306,0,0,1,.1-.066A.533.533,0,0,1,31.331.01a.994.994,0,0,1,.986.524,5.527,5.527,0,0,1,.615,1.123,7.59,7.59,0,0,1,.2,4.322A7.5,7.5,0,0,1,30.68,1.323ZM35.44,88.41a.674.674,0,0,1-.4.222.209.209,0,0,1-.056,0h-.006a.15.15,0,0,1-.046-.017l-.044-.029a.559.559,0,0,1-.2-.354,4.777,4.777,0,0,1,.561-2.327c.085-.141.25-.226.473-.421A3.556,3.556,0,0,1,35.44,88.41Zm23.226-.388a2,2,0,0,1-.052.429,1.355,1.355,0,0,1-.286.745.306.306,0,0,1-.1.066.559.559,0,0,1-.215.074,1,1,0,0,1-.986-.524,5.527,5.527,0,0,1-.615-1.123,7.593,7.593,0,0,1-.2-4.323A7.5,7.5,0,0,1,58.666,88.022Z" style="fill: rgb(11, 88, 132);"></path></g></svg>
